<svg id="Layer_1" data-name="Layer 1" xmlns="http://www.w3.org/2000/svg" xmlns:xlink="http://www.w3.org/1999/xlink" viewBox="0 0 152.6 144"><defs><linearGradient id="linear-gradient" x1="100.34" y1="22.14" x2="100.34" y2="166.1" gradientUnits="userSpaceOnUse"><stop offset="0" stop-color="#4e2e22"/><stop offset="0.22" stop-color="#51312a"/><stop offset="0.55" stop-color="#5a3841"/><stop offset="0.97" stop-color="#684365"/><stop offset="1" stop-color="#694468"/></linearGradient></defs><title>hair</title><path d="M67.1,43.4S63.8,25.2,85.7,22.6s26,7,40.6,7.1,30.1,4.8,33.1,21.2S170,73,173.2,80.2s6.3,25-1.2,32.3,1.2,23.8,1.2,33.4-1.9,20.1-16.8,20.2-24.7-7.1-24.7-16.3,5.1-11.6,9.1-16.2,11.5-20.4,11.5-29.3-6.1-14.4-11.5-27.4-17.3-15.3-22.5-21.8c-10.3-12.6-31.7-7-45-6.3-6.7.4-6.2,4.1-18.2,21.2-2.7,4-10.2,19.2-8,36.7.7,5.9,4.9,14.8,12.4,26.9q7.6,16.2,3.9,23.1c-3.7,6.8-24.7,9.5-29.8,3.8s-9.5-10.3-7.3-31.4-.8-12.7-2.2-34.5S36.2,61.8,37.4,52.9,54.8,37.6,67.1,43.4Z" transform="translate(-24 -22.1)" fill-rule="evenodd" fill="url(#linear-gradient)"/></svg>